<svg width="154" height="112" viewBox="0 0 154 112" fill="none" xmlns="http://www.w3.org/2000/svg">
<path fill-rule="evenodd" clip-rule="evenodd" d="M57.9583 0.861084C62.9183 0.861084 67.4257 3.80022 69.5042 8.38988L96.1073 67.1327L103.636 50.5087C105.714 45.9191 110.222 42.9799 115.182 42.9799H140.614C147.637 42.9799 153.331 48.7821 153.331 55.9396C153.331 63.097 147.637 68.8992 140.614 68.8992H123.318L107.653 103.489C105.575 108.079 101.067 111.018 96.1073 111.018C91.1472 111.018 86.6399 108.079 84.5614 103.489L57.9583 44.7464L50.4297 61.3704C48.3512 65.9601 43.8438 68.8992 38.8838 68.8992H13.4512C6.42815 68.8992 0.734863 63.097 0.734863 55.9396C0.734863 48.7821 6.42815 42.9799 13.4512 42.9799H30.7475L46.4124 8.38988C48.4909 3.80022 52.9983 0.861084 57.9583 0.861084Z" fill="black"/>
</svg>
